<svg width="40" height="36" viewBox="0 0 40 36" fill="none" xmlns="http://www.w3.org/2000/svg">
<g clip-path="url(#clip0_9_2)">
<path d="M34 0H6C2.68629 0 0 2.41766 0 5.4V30.6C0 33.5823 2.68629 36 6 36H34C37.3137 36 40 33.5823 40 30.6V5.4C40 2.41766 37.3137 0 34 0Z" fill="#37AEE2"/>
<path d="M15.5469 28.4062C14.6875 28.4062 14.7656 28.125 14.5312 27.4219L12.0312 20.0391L31.1719 9.91406" fill="#C8DAEA"/>
<path d="M15.5469 28.4062C16.0938 28.4062 16.4062 28.125 16.7969 27.8438L20.3125 24.8203L15.9375 22.4297" fill="#A9C9DD"/>
<path d="M15.9375 22.4297L26.4844 29.3906C27.5781 30.0234 28.5156 29.6719 28.8281 28.4063L33.125 10.2656C33.5156 8.71875 32.4219 8.01563 31.25 8.50782L6.17185 17.2266C4.53123 17.7891 4.53123 18.7031 5.85935 19.0547L12.3437 20.8828L27.1875 12.375C27.8906 12.0234 28.5156 12.1641 28.0469 12.6563" fill="#F6FBFE"/>
</g>
<defs>
<clipPath id="clip0_9_2">
<rect width="40" height="36" fill="white"/>
</clipPath>
</defs>
</svg>
